<?xml version="1.0" encoding="UTF-8"?>
<svg id="OBJECTS" xmlns="http://www.w3.org/2000/svg" xmlns:xlink="http://www.w3.org/1999/xlink" viewBox="0 0 500 500">
  <defs>
    <style>
      .cls-1 {
        fill: url(#linear-gradient-2);
      }

      .cls-2 {
        fill: url(#linear-gradient-3);
      }

      .cls-3 {
        fill: url(#linear-gradient);
      }
    </style>
    <linearGradient id="linear-gradient" x1="209.91" y1="371.24" x2="212.31" y2="457.93" gradientUnits="userSpaceOnUse">
      <stop offset="0" stop-color="#3070f9"/>
      <stop offset="1" stop-color="#00c0ee"/>
    </linearGradient>
    <linearGradient id="linear-gradient-2" x1="209.91" y1="371.24" x2="212.31" y2="457.93" gradientUnits="userSpaceOnUse">
      <stop offset="0" stop-color="#3070f9"/>
      <stop offset="1" stop-color="#00c2ee"/>
    </linearGradient>
    <linearGradient id="linear-gradient-3" x1="310.43" y1="421.16" x2="187.02" y2="16.84" gradientUnits="userSpaceOnUse">
      <stop offset="0" stop-color="#3dc2ec"/>
      <stop offset=".13" stop-color="#40afee"/>
      <stop offset=".34" stop-color="#4493f1"/>
      <stop offset=".56" stop-color="#487ff3"/>
      <stop offset=".78" stop-color="#4a73f4"/>
      <stop offset="1" stop-color="#4b70f5"/>
    </linearGradient>
  </defs>
  <path class="cls-3" d="M353.96,360.5v86.07c0,9.98-10.33,16.61-19.4,12.47l-129.76-59.31-140.23-64.09,145.4,12.49c-.56,3.3.57,6.69,3.06,8.99,4.05,3.78,10.41,3.55,14.19-.5l6.06-6.5,120.68,10.37Z"/>
  <path class="cls-1" d="M353.96,360.5v86.07c0,9.98-10.33,16.61-19.4,12.47l-129.76-59.31-140.23-64.09,145.4,12.49c-.56,3.3.57,6.69,3.06,8.99,4.05,3.78,10.41,3.55,14.19-.5l6.06-6.5,120.68,10.37Z"/>
  <path class="cls-2" d="M449.45,103.03c-3.43-32.95-30.15-58.67-63.21-60.72-78.73-4.88-199.9-5.3-274.22-.62-33.98,2.13-61.28,28.99-63.59,62.95-5.29,78.06-5.74,154.28-.53,228.32,2.38,33.71,29.01,60.77,62.72,63.12,27.19,1.88,59.87,3.11,94.18,3.66,50.25.82,104.01.18,149.16-1.9,11.79-.55,22.99-1.2,33.38-1.94,32.67-2.32,58.99-27.8,62.49-60.35,8.21-76.49,7.77-154.04-.38-232.51ZM367.8,205.99l-134.53,144.14-6.06,6.5c-3.78,4.05-10.14,4.28-14.19.5-2.48-2.31-3.62-5.69-3.06-8.99.05-.34.13-.68.22-1.02l26.67-97.76h-97.31c-5.54,0-10.04-4.5-10.04-10.05,0-2.55.96-4.99,2.7-6.85l140.59-150.62c3.15-3.37,8.19-4.16,12.21-1.92,4.04,2.25,6.02,6.95,4.81,11.41l-26.67,97.78h97.31c5.54,0,10.04,4.5,10.04,10.04,0,2.55-.97,4.99-2.7,6.85Z"/>
</svg>